<svg xmlns="http://www.w3.org/2000/svg" width="480pt" height="290pt" viewBox="0 0 480 290" version="1.1" xmlns:xlink="http://www.w3.org/1999/xlink">
  <g id="surface2" transform="matrix(2.0740233987995107,0.0005495894197008957,-0.0005495894197008957,2.0740233987995107,-254.62838952981718,-92.64404273325233)">
    <path style="stroke:none;fill-rule:evenodd;fill:rgb(69.411765%,5.098039%,15.686275%);fill-opacity:1" d="M 202.199219 146.250000 C 201.734375 146.382812 200.917969 146.515625 199.750000 146.648438 C 198.582031 146.750000 197.316406 146.851562 195.949219 146.949219 C 194.617188 147.050781 193.464844 147.132812 192.500000 147.199219 C 191.535156 147.234375 191.035156 147.250000 191.000000 147.250000 C 192.765625 144.582031 194.500000 142.601562 196.199219 141.300781 C 197.933594 140.000000 199.367188 139.148438 200.500000 138.750000 C 201.667969 138.351562 202.265625 138.183594 202.300781 138.250000 C 201.832031 138.214844 201.101562 138.132812 200.101562 138.000000 C 199.101562 137.832031 198.035156 137.632812 196.898438 137.398438 C 195.800781 137.199219 194.851562 137.015625 194.050781 136.851562 C 193.250000 136.714844 192.832031 136.632812 192.800781 136.601562 C 194.332031 134.632812 195.933594 133.066406 197.601562 131.898438 C 199.300781 130.734375 200.867188 129.882812 202.300781 129.351562 C 203.765625 128.785156 204.949219 128.417969 205.851562 128.250000 C 206.785156 128.082031 207.265625 128.000000 207.300781 128.000000 C 208.066406 128.000000 208.417969 127.867188 208.351562 127.601562 C 208.316406 127.332031 208.148438 127.050781 207.851562 126.750000 C 207.515625 126.484375 207.332031 126.351562 207.300781 126.351562 C 206.800781 126.050781 206.066406 125.714844 205.101562 125.351562 C 204.132812 125.015625 203.117188 124.683594 202.050781 124.351562 C 200.984375 124.015625 200.082031 123.750000 199.351562 123.550781 C 198.617188 123.351562 198.234375 123.250000 198.199219 123.250000 C 201.566406 120.617188 204.332031 118.765625 206.500000 117.699219 C 208.667969 116.632812 210.265625 116.035156 211.300781 115.898438 C 212.332031 115.734375 212.851562 115.683594 212.851562 115.750000 C 212.714844 115.183594 212.265625 114.417969 211.500000 113.449219 C 210.699219 112.484375 209.898438 111.601562 209.101562 110.800781 C 208.332031 110.000000 207.917969 109.566406 207.851562 109.500000 C 208.183594 109.398438 208.882812 109.199219 209.949219 108.898438 C 211.015625 108.601562 212.250000 108.265625 213.648438 107.898438 C 215.050781 107.535156 216.417969 107.167969 217.750000 106.800781 C 219.117188 106.464844 220.234375 106.183594 221.101562 105.949219 C 222.000000 105.714844 222.464844 105.582031 222.500000 105.550781 C 222.500000 104.050781 222.933594 102.882812 223.800781 102.050781 C 224.667969 101.250000 225.734375 100.699219 227.000000 100.398438 C 228.265625 100.101562 229.550781 99.949219 230.851562 99.949219 C 232.117188 99.949219 233.183594 100.000000 234.050781 100.101562 C 234.949219 100.234375 235.417969 100.300781 235.449219 100.300781 C 238.882812 98.734375 241.714844 97.066406 243.949219 95.300781 C 246.148438 93.566406 247.800781 92.082031 248.898438 90.851562 C 249.964844 89.582031 250.500000 88.933594 250.500000 88.898438 C 250.667969 88.566406 251.066406 88.148438 251.699219 87.648438 C 252.332031 87.183594 252.933594 86.750000 253.500000 86.351562 C 254.101562 85.984375 254.417969 85.785156 254.449219 85.750000 C 256.082031 85.082031 257.515625 84.785156 258.750000 84.851562 C 260.015625 84.882812 261.050781 85.082031 261.851562 85.449219 C 262.683594 85.816406 263.316406 86.183594 263.750000 86.550781 C 264.148438 86.949219 264.351562 87.167969 264.351562 87.199219 C 264.714844 87.832031 265.015625 88.699219 265.250000 89.800781 C 265.515625 90.898438 265.714844 92.015625 265.851562 93.148438 C 266.015625 94.285156 266.132812 95.250000 266.199219 96.050781 C 266.265625 96.851562 266.300781 97.265625 266.300781 97.300781 C 267.433594 95.300781 268.832031 93.617188 270.500000 92.250000 C 272.167969 90.882812 273.816406 89.785156 275.449219 88.949219 C 277.117188 88.117188 278.500000 87.515625 279.601562 87.148438 C 280.734375 86.785156 281.316406 86.601562 281.351562 86.601562 C 281.285156 86.066406 281.464844 85.449219 281.898438 84.750000 C 282.332031 84.050781 282.785156 83.417969 283.250000 82.851562 C 283.714844 82.316406 283.984375 82.035156 284.050781 82.000000 C 285.214844 84.800781 285.683594 87.015625 285.449219 88.648438 C 285.214844 90.316406 284.648438 91.550781 283.750000 92.351562 C 282.851562 93.148438 281.984375 93.683594 281.148438 93.949219 C 280.285156 94.183594 279.832031 94.285156 279.800781 94.250000 C 279.566406 94.351562 279.082031 94.484375 278.351562 94.648438 C 277.582031 94.785156 276.750000 94.933594 275.851562 95.101562 C 274.949219 95.265625 274.167969 95.398438 273.500000 95.500000 C 272.832031 95.601562 272.484375 95.667969 272.449219 95.699219 C 270.785156 95.898438 269.515625 96.316406 268.648438 96.949219 C 267.785156 97.582031 267.199219 98.199219 266.898438 98.800781 C 266.566406 99.367188 266.417969 99.667969 266.449219 99.699219 L 265.351562 99.500000 L 265.351562 98.398438 L 261.800781 96.851562 L 251.199219 110.750000 L 262.648438 106.050781 L 262.101562 103.199219 L 272.699219 107.101562 L 271.101562 117.351562 L 269.050781 117.500000 L 268.148438 113.550781 C 267.882812 113.816406 267.082031 114.535156 265.750000 115.699219 C 264.417969 116.867188 262.851562 118.234375 261.050781 119.800781 C 259.214844 121.398438 257.398438 122.964844 255.601562 124.500000 C 253.832031 126.066406 252.351562 127.367188 251.148438 128.398438 C 249.949219 129.398438 249.332031 129.933594 249.300781 130.000000 C 247.933594 130.832031 246.617188 131.300781 245.351562 131.398438 C 244.117188 131.500000 243.000000 131.417969 242.000000 131.148438 C 241.035156 130.851562 240.265625 130.535156 239.699219 130.199219 C 239.132812 129.867188 238.851562 129.683594 238.851562 129.648438 C 238.648438 131.683594 238.148438 133.750000 237.351562 135.851562 C 236.550781 137.917969 235.632812 139.882812 234.601562 141.750000 C 233.566406 143.582031 232.617188 145.132812 231.750000 146.398438 C 230.015625 149.000000 228.898438 151.417969 228.398438 153.648438 C 227.898438 155.882812 227.750000 157.898438 227.949219 159.699219 C 228.148438 161.535156 228.398438 163.148438 228.699219 164.550781 C 228.832031 165.250000 229.000000 166.234375 229.199219 167.500000 C 229.398438 168.765625 229.632812 170.183594 229.898438 171.750000 C 230.167969 173.316406 230.433594 174.917969 230.699219 176.550781 C 233.699219 177.015625 236.785156 177.250000 239.949219 177.250000 C 248.515625 177.183594 256.515625 175.566406 263.949219 172.398438 C 271.382812 169.234375 277.917969 164.832031 283.550781 159.199219 C 289.183594 153.566406 293.582031 147.035156 296.750000 139.601562 C 299.917969 132.167969 301.535156 124.167969 301.601562 115.601562 C 301.535156 107.035156 299.917969 99.035156 296.750000 91.601562 C 293.582031 84.167969 289.183594 77.632812 283.550781 72.000000 C 277.917969 66.367188 271.382812 61.964844 263.949219 58.800781 C 256.515625 55.632812 248.515625 54.015625 239.949219 53.949219 C 231.382812 54.015625 223.382812 55.632812 215.949219 58.800781 C 208.515625 61.964844 201.984375 66.367188 196.351562 72.000000 C 190.714844 77.632812 186.316406 84.167969 183.148438 91.601562 C 179.984375 99.035156 178.367188 107.035156 178.300781 115.601562 C 178.332031 123.832031 179.832031 131.550781 182.800781 138.750000 C 185.765625 145.949219 189.882812 152.332031 195.148438 157.898438 C 196.382812 156.800781 197.449219 155.582031 198.351562 154.250000 C 199.214844 152.917969 199.949219 151.648438 200.550781 150.449219 C 201.117188 149.250000 201.535156 148.250000 201.800781 147.449219 C 202.066406 146.683594 202.199219 146.285156 202.199219 146.250000 "/>
    <path style="stroke:none;fill-rule:evenodd;fill:rgb(76.862745%,7.058824%,18.431373%);fill-opacity:1" d="M 292.000000 87.851562 C 292.000000 85.984375 291.917969 84.101562 291.750000 82.199219 C 288.050781 76.500000 283.566406 71.550781 278.300781 67.351562 C 273.000000 63.117188 267.101562 59.832031 260.601562 57.500000 C 254.101562 55.167969 247.214844 53.984375 239.949219 53.949219 C 231.382812 54.015625 223.382812 55.632812 215.949219 58.800781 C 208.515625 61.964844 201.984375 66.367188 196.351562 72.000000 C 190.714844 77.632812 186.316406 84.167969 183.148438 91.601562 C 179.984375 99.035156 178.367188 107.035156 178.300781 115.601562 C 178.332031 123.832031 179.832031 131.550781 182.800781 138.750000 C 185.765625 145.949219 189.882812 152.332031 195.148438 157.898438 C 196.382812 156.800781 197.449219 155.582031 198.351562 154.250000 C 199.214844 152.917969 199.949219 151.648438 200.550781 150.449219 C 201.117188 149.250000 201.535156 148.250000 201.800781 147.449219 C 202.066406 146.683594 202.199219 146.285156 202.199219 146.250000 C 201.734375 146.382812 200.917969 146.515625 199.750000 146.648438 C 198.582031 146.750000 197.316406 146.851562 195.949219 146.949219 C 194.617188 147.050781 193.464844 147.132812 192.500000 147.199219 C 191.535156 147.234375 191.035156 147.250000 191.000000 147.250000 C 192.765625 144.582031 194.500000 142.601562 196.199219 141.300781 C 197.933594 140.000000 199.367188 139.148438 200.500000 138.750000 C 201.667969 138.351562 202.265625 138.183594 202.300781 138.250000 C 201.832031 138.214844 201.101562 138.132812 200.101562 138.000000 C 199.101562 137.832031 198.035156 137.632812 196.898438 137.398438 C 195.800781 137.199219 194.851562 137.015625 194.050781 136.851562 C 193.250000 136.714844 192.832031 136.632812 192.800781 136.601562 C 194.332031 134.632812 195.933594 133.066406 197.601562 131.898438 C 199.300781 130.734375 200.867188 129.882812 202.300781 129.351562 C 203.765625 128.785156 204.949219 128.417969 205.851562 128.250000 C 206.785156 128.082031 207.265625 128.000000 207.300781 128.000000 C 208.066406 128.000000 208.417969 127.867188 208.351562 127.601562 C 208.316406 127.332031 208.148438 127.050781 207.851562 126.750000 C 207.515625 126.484375 207.332031 126.351562 207.300781 126.351562 C 206.800781 126.050781 206.066406 125.714844 205.101562 125.351562 C 204.132812 125.015625 203.117188 124.683594 202.050781 124.351562 C 200.984375 124.015625 200.082031 123.750000 199.351562 123.550781 C 198.617188 123.351562 198.234375 123.250000 198.199219 123.250000 C 201.566406 120.617188 204.332031 118.765625 206.500000 117.699219 C 208.667969 116.632812 210.265625 116.035156 211.300781 115.898438 C 212.332031 115.734375 212.851562 115.683594 212.851562 115.750000 C 212.714844 115.183594 212.265625 114.417969 211.500000 113.449219 C 210.699219 112.484375 209.898438 111.601562 209.101562 110.800781 C 208.332031 110.000000 207.917969 109.566406 207.851562 109.500000 C 208.183594 109.398438 208.882812 109.199219 209.949219 108.898438 C 211.015625 108.601562 212.250000 108.265625 213.648438 107.898438 C 215.050781 107.535156 216.417969 107.167969 217.750000 106.800781 C 219.117188 106.464844 220.234375 106.183594 221.101562 105.949219 C 222.000000 105.714844 222.464844 105.582031 222.500000 105.550781 C 222.500000 104.050781 222.933594 102.882812 223.800781 102.050781 C 224.667969 101.250000 225.734375 100.699219 227.000000 100.398438 C 228.265625 100.101562 229.550781 99.949219 230.851562 99.949219 C 232.117188 99.949219 233.183594 100.000000 234.050781 100.101562 C 234.949219 100.234375 235.417969 100.300781 235.449219 100.300781 C 238.882812 98.734375 241.714844 97.066406 243.949219 95.300781 C 246.148438 93.566406 247.800781 92.082031 248.898438 90.851562 C 249.964844 89.582031 250.500000 88.933594 250.500000 88.898438 C 250.667969 88.566406 251.066406 88.148438 251.699219 87.648438 C 252.332031 87.183594 252.933594 86.750000 253.500000 86.351562 C 254.101562 85.984375 254.417969 85.785156 254.449219 85.750000 C 256.082031 85.082031 257.515625 84.785156 258.750000 84.851562 C 260.015625 84.882812 261.050781 85.082031 261.851562 85.449219 C 262.683594 85.816406 263.316406 86.183594 263.750000 86.550781 C 264.148438 86.949219 264.351562 87.167969 264.351562 87.199219 C 264.714844 87.832031 265.015625 88.699219 265.250000 89.800781 C 265.515625 90.898438 265.714844 92.015625 265.851562 93.148438 C 266.015625 94.285156 266.132812 95.250000 266.199219 96.050781 C 266.265625 96.851562 266.300781 97.265625 266.300781 97.300781 C 267.433594 95.300781 268.832031 93.617188 270.500000 92.250000 C 272.167969 90.882812 273.816406 89.785156 275.449219 88.949219 C 277.117188 88.117188 278.500000 87.515625 279.601562 87.148438 C 280.734375 86.785156 281.316406 86.601562 281.351562 86.601562 C 281.285156 86.066406 281.464844 85.449219 281.898438 84.750000 C 282.332031 84.050781 282.785156 83.417969 283.250000 82.851562 C 283.714844 82.316406 283.984375 82.035156 284.050781 82.000000 C 285.214844 84.800781 285.683594 87.015625 285.449219 88.648438 C 285.214844 90.316406 284.648438 91.550781 283.750000 92.351562 C 282.851562 93.148438 281.984375 93.683594 281.148438 93.949219 C 280.285156 94.183594 279.832031 94.285156 279.800781 94.250000 C 279.566406 94.351562 279.082031 94.484375 278.351562 94.648438 C 277.582031 94.785156 276.750000 94.933594 275.851562 95.101562 C 274.949219 95.265625 274.167969 95.398438 273.500000 95.500000 C 272.832031 95.601562 272.484375 95.667969 272.449219 95.699219 C 270.785156 95.898438 269.515625 96.316406 268.648438 96.949219 C 267.785156 97.582031 267.199219 98.199219 266.898438 98.800781 C 266.566406 99.367188 266.417969 99.667969 266.449219 99.699219 L 265.351562 99.500000 L 265.351562 98.398438 L 261.800781 96.851562 L 251.199219 110.750000 L 262.648438 106.050781 L 262.101562 103.199219 L 272.699219 107.101562 L 271.101562 117.351562 L 269.050781 117.500000 L 268.148438 113.550781 C 267.882812 113.816406 267.082031 114.535156 265.750000 115.699219 C 264.417969 116.867188 262.851562 118.234375 261.050781 119.800781 C 259.214844 121.398438 257.398438 122.964844 255.601562 124.500000 C 253.832031 126.066406 252.351562 127.367188 251.148438 128.398438 C 249.949219 129.398438 249.332031 129.933594 249.300781 130.000000 C 247.933594 130.832031 246.617188 131.300781 245.351562 131.398438 C 244.117188 131.500000 243.000000 131.417969 242.000000 131.148438 C 241.035156 130.851562 240.265625 130.535156 239.699219 130.199219 C 239.132812 129.867188 238.851562 129.683594 238.851562 129.648438 C 238.648438 131.683594 238.148438 133.750000 237.351562 135.851562 C 236.550781 137.917969 235.632812 139.882812 234.601562 141.750000 C 233.566406 143.582031 232.617188 145.132812 231.750000 146.398438 C 230.351562 148.464844 229.367188 150.417969 228.800781 152.250000 C 228.199219 154.117188 227.898438 155.832031 227.898438 157.398438 C 227.867188 158.964844 227.964844 160.417969 228.199219 161.750000 C 237.265625 160.382812 245.667969 157.550781 253.398438 153.250000 C 261.132812 148.984375 267.882812 143.550781 273.648438 136.949219 C 279.417969 130.316406 283.898438 122.832031 287.101562 114.500000 C 290.332031 106.199219 291.964844 97.316406 292.000000 87.851562 "/>
    <path style="stroke:none;fill-rule:evenodd;fill:rgb(84.313725%,8.627451%,20.784314%);fill-opacity:1" d="M 269.050781 117.500000 L 268.148438 113.550781 C 267.882812 113.816406 267.082031 114.535156 265.750000 115.699219 C 264.417969 116.867188 262.851562 118.234375 261.050781 119.800781 C 259.214844 121.398438 257.398438 122.964844 255.601562 124.500000 C 253.832031 126.066406 252.351562 127.367188 251.148438 128.398438 C 249.949219 129.398438 249.332031 129.933594 249.300781 130.000000 C 247.933594 130.832031 246.617188 131.300781 245.351562 131.398438 C 244.117188 131.500000 243.000000 131.417969 242.000000 131.148438 C 241.035156 130.851562 240.265625 130.535156 239.699219 130.199219 C 239.132812 129.867188 238.851562 129.683594 238.851562 129.648438 C 238.648438 131.683594 238.148438 133.750000 237.351562 135.851562 C 236.550781 137.917969 235.632812 139.882812 234.601562 141.750000 C 233.566406 143.582031 232.617188 145.132812 231.750000 146.398438 C 230.550781 148.167969 229.667969 149.832031 229.101562 151.398438 C 237.699219 149.800781 245.648438 146.882812 252.949219 142.648438 C 260.250000 138.417969 266.648438 133.132812 272.148438 126.800781 C 277.648438 120.464844 281.984375 113.332031 285.148438 105.398438 C 288.285156 97.464844 290.000000 89.015625 290.300781 80.050781 C 286.566406 74.750000 282.101562 70.148438 276.898438 66.250000 C 271.734375 62.351562 266.015625 59.332031 259.750000 57.199219 C 253.515625 55.066406 246.917969 53.984375 239.949219 53.949219 C 231.382812 54.015625 223.382812 55.632812 215.949219 58.800781 C 208.515625 61.964844 201.984375 66.367188 196.351562 72.000000 C 190.714844 77.632812 186.316406 84.167969 183.148438 91.601562 C 179.984375 99.035156 178.367188 107.035156 178.300781 115.601562 C 178.332031 121.300781 179.082031 126.785156 180.550781 132.050781 C 182.015625 137.316406 184.101562 142.250000 186.800781 146.851562 C 191.101562 148.648438 195.582031 150.035156 200.250000 151.000000 C 200.917969 149.667969 201.417969 148.550781 201.750000 147.648438 C 202.050781 146.750000 202.199219 146.285156 202.199219 146.250000 C 201.734375 146.382812 200.917969 146.515625 199.750000 146.648438 C 198.582031 146.750000 197.316406 146.851562 195.949219 146.949219 C 194.617188 147.050781 193.464844 147.132812 192.500000 147.199219 C 191.535156 147.234375 191.035156 147.250000 191.000000 147.250000 C 192.765625 144.582031 194.500000 142.601562 196.199219 141.300781 C 197.933594 140.000000 199.367188 139.148438 200.500000 138.750000 C 201.667969 138.351562 202.265625 138.183594 202.300781 138.250000 C 201.832031 138.214844 201.101562 138.132812 200.101562 138.000000 C 199.101562 137.832031 198.035156 137.632812 196.898438 137.398438 C 195.800781 137.199219 194.851562 137.015625 194.050781 136.851562 C 193.250000 136.714844 192.832031 136.632812 192.800781 136.601562 C 194.332031 134.632812 195.933594 133.066406 197.601562 131.898438 C 199.300781 130.734375 200.867188 129.882812 202.300781 129.351562 C 203.765625 128.785156 204.949219 128.417969 205.851562 128.250000 C 206.785156 128.082031 207.265625 128.000000 207.300781 128.000000 C 208.066406 128.000000 208.417969 127.867188 208.351562 127.601562 C 208.316406 127.332031 208.148438 127.050781 207.851562 126.750000 C 207.515625 126.484375 207.332031 126.351562 207.300781 126.351562 C 206.800781 126.050781 206.066406 125.714844 205.101562 125.351562 C 204.132812 125.015625 203.117188 124.683594 202.050781 124.351562 C 200.984375 124.015625 200.082031 123.750000 199.351562 123.550781 C 198.617188 123.351562 198.234375 123.250000 198.199219 123.250000 C 201.566406 120.617188 204.332031 118.765625 206.500000 117.699219 C 208.667969 116.632812 210.265625 116.035156 211.300781 115.898438 C 212.332031 115.734375 212.851562 115.683594 212.851562 115.750000 C 212.714844 115.183594 212.265625 114.417969 211.500000 113.449219 C 210.699219 112.484375 209.898438 111.601562 209.101562 110.800781 C 208.332031 110.000000 207.917969 109.566406 207.851562 109.500000 C 208.183594 109.398438 208.882812 109.199219 209.949219 108.898438 C 211.015625 108.601562 212.250000 108.265625 213.648438 107.898438 C 215.050781 107.535156 216.417969 107.167969 217.750000 106.800781 C 219.117188 106.464844 220.234375 106.183594 221.101562 105.949219 C 222.000000 105.714844 222.464844 105.582031 222.500000 105.550781 C 222.500000 104.050781 222.933594 102.882812 223.800781 102.050781 C 224.667969 101.250000 225.734375 100.699219 227.000000 100.398438 C 228.265625 100.101562 229.550781 99.949219 230.851562 99.949219 C 232.117188 99.949219 233.183594 100.000000 234.050781 100.101562 C 234.949219 100.234375 235.417969 100.300781 235.449219 100.300781 C 238.882812 98.734375 241.714844 97.066406 243.949219 95.300781 C 246.148438 93.566406 247.800781 92.082031 248.898438 90.851562 C 249.964844 89.582031 250.500000 88.933594 250.500000 88.898438 C 250.667969 88.566406 251.066406 88.148438 251.699219 87.648438 C 252.332031 87.183594 252.933594 86.750000 253.500000 86.351562 C 254.101562 85.984375 254.417969 85.785156 254.449219 85.750000 C 256.082031 85.082031 257.515625 84.785156 258.750000 84.851562 C 260.015625 84.882812 261.050781 85.082031 261.851562 85.449219 C 262.683594 85.816406 263.316406 86.183594 263.750000 86.550781 C 264.148438 86.949219 264.351562 87.167969 264.351562 87.199219 C 264.714844 87.832031 265.015625 88.699219 265.250000 89.800781 C 265.515625 90.898438 265.714844 92.015625 265.851562 93.148438 C 266.015625 94.285156 266.132812 95.250000 266.199219 96.050781 C 266.265625 96.851562 266.300781 97.265625 266.300781 97.300781 C 267.433594 95.300781 268.832031 93.617188 270.500000 92.250000 C 272.167969 90.882812 273.816406 89.785156 275.449219 88.949219 C 277.117188 88.117188 278.500000 87.515625 279.601562 87.148438 C 280.734375 86.785156 281.316406 86.601562 281.351562 86.601562 C 281.285156 86.066406 281.464844 85.449219 281.898438 84.750000 C 282.332031 84.050781 282.785156 83.417969 283.250000 82.851562 C 283.714844 82.316406 283.984375 82.035156 284.050781 82.000000 C 285.214844 84.800781 285.683594 87.015625 285.449219 88.648438 C 285.214844 90.316406 284.648438 91.550781 283.750000 92.351562 C 282.851562 93.148438 281.984375 93.683594 281.148438 93.949219 C 280.285156 94.183594 279.832031 94.285156 279.800781 94.250000 C 279.566406 94.351562 279.082031 94.484375 278.351562 94.648438 C 277.582031 94.785156 276.750000 94.933594 275.851562 95.101562 C 274.949219 95.265625 274.167969 95.398438 273.500000 95.500000 C 272.832031 95.601562 272.484375 95.667969 272.449219 95.699219 C 270.785156 95.898438 269.515625 96.316406 268.648438 96.949219 C 267.785156 97.582031 267.199219 98.199219 266.898438 98.800781 C 266.566406 99.367188 266.417969 99.667969 266.449219 99.699219 L 265.351562 99.500000 L 265.351562 98.398438 L 261.800781 96.851562 L 251.199219 110.750000 L 262.648438 106.050781 L 262.101562 103.199219 L 272.699219 107.101562 L 271.101562 117.351562 L 269.050781 117.500000 "/>
  </g>
  <g id="surface4">
  </g>
</svg>